<svg width="362" height="96" viewBox="0 0 362 96" fill="none" xmlns="http://www.w3.org/2000/svg">
<path d="M48.135 0C21.6272 0 0.137207 21.49 0.137207 48.0022C0.137207 74.5144 21.6272 96 48.135 96C74.6428 96 96.1328 74.51 96.1328 48.0022C96.1328 21.4944 74.6472 0 48.135 0ZM61.8889 16.4193L61.7964 16.4809L60.488 16.6527C56.2367 17.2343 55.9812 17.785 55.9812 26.499V56.3594C55.9812 61.9103 55.7565 68.1221 54.1 72.1487C51.0779 79.475 44.8353 84.0171 37.8173 84.0171C34.5705 84.0171 33.8965 82.8496 33.8965 81.8716C33.8965 80.1931 35.3018 77.704 37.2534 77.704C38.2667 77.704 39.2756 77.867 40.3681 78.2018C41.6766 78.5807 42.681 78.7481 43.615 78.7481C44.8838 78.7481 45.7957 78.149 46.4125 76.911C47.9235 73.8316 48.4654 64.2188 48.4654 56.9233V26.499C48.4654 17.4061 47.5623 17.0184 43.3286 16.6527L41.2008 16.4853L41.1038 16.4193C40.7646 16.1902 40.5972 15.732 40.6016 15.124L40.6148 14.6791H62.3691L62.3868 15.124C62.4132 15.7188 62.2326 16.1902 61.8933 16.4193" fill="#171717"/>
<path d="M107.539 54.3858C107.684 54.2095 107.878 54.1258 108.094 54.1258C108.323 54.1479 108.517 54.236 108.675 54.3858C108.838 54.5311 108.913 54.7206 108.913 54.9453C108.913 55.6193 109.054 56.2669 109.31 56.9057C109.57 57.5357 109.935 58.104 110.389 58.6018C110.856 59.0996 111.402 59.4917 112.054 59.7957C112.693 60.0953 113.42 60.2451 114.213 60.2451C114.834 60.2451 115.46 60.1261 116.085 59.8882C116.702 59.6503 117.27 59.3155 117.777 58.8794C118.288 58.4388 118.698 57.9146 119.011 57.2934C119.328 56.6722 119.491 55.9717 119.513 55.1964V36.4774C119.513 36.2748 119.596 36.0986 119.759 35.94C119.922 35.777 120.116 35.6933 120.337 35.6933C120.557 35.6933 120.751 35.777 120.896 35.94C121.055 36.0986 121.125 36.2792 121.125 36.4774V54.7911C121.125 55.888 120.918 56.8705 120.513 57.7471C120.099 58.6106 119.574 59.3463 118.931 59.9455C118.279 60.5446 117.543 60.9984 116.702 61.3244C115.874 61.6416 115.046 61.8046 114.222 61.8046C113.354 61.8046 112.508 61.6416 111.684 61.3112C110.869 60.9896 110.125 60.5226 109.477 59.919C108.834 59.3155 108.323 58.5886 107.913 57.7471C107.521 56.8969 107.318 55.9629 107.318 54.9453C107.318 54.747 107.398 54.562 107.543 54.3858" fill="#171717"/>
<path d="M114.217 62.4874C113.252 62.4874 112.314 62.3024 111.424 61.9412C110.534 61.5887 109.719 61.0733 109.01 60.4169C108.327 59.7781 107.75 58.9807 107.296 58.0423C106.856 57.0819 106.635 56.0466 106.635 54.9408C106.635 54.5884 106.767 54.2404 107.023 53.9408C107.296 53.6148 107.679 53.4386 108.102 53.4386C108.538 53.4738 108.878 53.628 109.151 53.8835C109.446 54.1479 109.605 54.5179 109.605 54.9364C109.605 55.5003 109.719 56.0598 109.953 56.6414C110.177 57.1832 110.499 57.6855 110.904 58.1304C111.305 58.5578 111.781 58.897 112.354 59.1657C113.323 59.6195 114.605 59.712 115.847 59.2362C116.398 59.0247 116.9 58.7296 117.336 58.3507C117.786 57.9674 118.134 57.5181 118.407 56.9762C118.675 56.4475 118.816 55.8572 118.838 55.1655V36.4686C118.838 36.0854 118.993 35.7285 119.288 35.4422C119.883 34.8518 120.874 34.8738 121.411 35.4774C121.662 35.7285 121.812 36.0809 121.812 36.4686V54.7822C121.812 55.9673 121.583 57.0599 121.134 58.0247C120.68 58.9763 120.094 59.7869 119.398 60.4345C118.671 61.0997 117.874 61.5931 116.948 61.95C116.037 62.298 115.12 62.4742 114.221 62.4742L114.217 62.4874ZM108.036 54.8043L108.063 54.8263C108.045 54.8483 108.001 54.9056 108.001 54.9408C108.001 55.844 108.177 56.6942 108.534 57.4564C108.917 58.2406 109.38 58.8838 109.944 59.4168C110.525 59.9587 111.199 60.3816 111.935 60.6724C113.349 61.2495 114.896 61.2803 116.455 60.6856C117.217 60.3904 117.874 59.9851 118.468 59.4388C119.037 58.9102 119.517 58.2361 119.896 57.4476C120.257 56.6678 120.442 55.7691 120.442 54.7867L120.385 36.3849C120.314 36.3673 120.292 36.3673 120.244 36.4158L120.2 55.192C120.173 56.0995 119.979 56.9013 119.623 57.5974C119.275 58.2934 118.803 58.897 118.226 59.3904C117.675 59.8706 117.037 60.2495 116.332 60.5182C114.746 61.1262 113.076 61.016 111.772 60.4081C111.036 60.0644 110.424 59.6239 109.895 59.06C109.375 58.4917 108.97 57.8529 108.684 57.1568C108.38 56.4035 108.234 55.6766 108.234 54.9364C108.16 54.8263 108.107 54.8043 108.036 54.7955V54.8043Z" fill="#171717"/>
<path d="M140.144 61.8442C138.355 61.8442 136.668 61.5006 135.091 60.8222C133.513 60.1349 132.13 59.1921 130.949 58.0026C129.773 56.8132 128.835 55.4166 128.152 53.8218C127.465 52.2314 127.13 50.5265 127.13 48.7115C127.13 46.8964 127.465 45.2311 128.152 43.6584C128.835 42.0768 129.769 40.6979 130.949 39.5172C132.13 38.3409 133.513 37.407 135.091 36.7153C136.668 36.0325 138.355 35.6888 140.144 35.6888C141.932 35.6888 143.668 36.0325 145.258 36.7153C146.849 37.4026 148.237 38.3365 149.413 39.5172C150.598 40.7023 151.532 42.0768 152.21 43.6584C152.898 45.2311 153.241 46.9184 153.241 48.7115C153.241 50.5045 152.898 52.2314 152.21 53.8218C151.527 55.4166 150.594 56.8088 149.413 58.0026C148.237 59.1921 146.849 60.1349 145.258 60.8222C143.668 61.5006 141.959 61.8442 140.144 61.8442ZM140.161 37.1823C138.597 37.1823 137.122 37.4951 135.734 38.1163C134.346 38.7418 133.13 39.5701 132.099 40.6142C131.073 41.6583 130.249 42.8786 129.641 44.2751C129.029 45.6629 128.729 47.1475 128.729 48.7115C128.729 50.2754 129.029 51.8041 129.641 53.2227C130.249 54.6457 131.077 55.8792 132.099 56.9365C133.13 57.9938 134.342 58.8265 135.734 59.4388C137.126 60.0424 138.602 60.3508 140.161 60.3508C141.721 60.3508 143.241 60.0424 144.633 59.4388C146.025 58.8265 147.241 57.9938 148.285 56.9365C149.329 55.8792 150.144 54.6457 150.739 53.2227C151.334 51.8085 151.629 50.3018 151.629 48.7115C151.629 47.1211 151.334 45.6629 150.739 44.2751C150.144 42.8786 149.329 41.6583 148.285 40.6142C147.241 39.5701 146.021 38.7374 144.633 38.1163C143.236 37.4951 141.752 37.1823 140.161 37.1823Z" fill="#171717"/>
<path d="M140.143 62.5271C138.271 62.5271 136.482 62.1658 134.822 61.4522C133.165 60.7297 131.698 59.7296 130.465 58.4873C129.227 57.2361 128.235 55.7603 127.526 54.095C126.812 52.4385 126.447 50.6279 126.447 48.7159C126.447 46.8039 126.808 45.0329 127.526 43.3896C128.231 41.7508 129.222 40.2882 130.465 39.037C131.698 37.8035 133.161 36.8167 134.817 36.0942C138.165 34.6448 142.205 34.6668 145.527 36.0942C147.192 36.8167 148.664 37.8079 149.897 39.037C151.14 40.2794 152.131 41.742 152.84 43.3941C153.563 45.0505 153.928 46.8391 153.928 48.7203C153.928 50.6014 153.563 52.4297 152.84 54.0994C152.126 55.7691 151.135 57.2449 149.897 58.4917C148.664 59.7384 147.192 60.7341 145.531 61.4566C143.853 62.1747 142.042 62.5359 140.143 62.5359V62.5271ZM140.143 36.3761C138.461 36.3761 136.853 36.7021 135.363 37.3453C133.87 37.9973 132.544 38.8916 131.434 40.0018C130.315 41.1252 129.42 42.4513 128.782 43.9315C128.138 45.403 127.817 47.011 127.817 48.7159C127.817 50.4208 128.143 52.0685 128.782 53.5531C129.425 55.0598 130.319 56.3947 131.438 57.5225C132.548 58.6459 133.874 59.5446 135.368 60.1966C138.368 61.4874 142.011 61.4654 144.994 60.1966C146.496 59.549 147.822 58.6503 148.932 57.5269C150.051 56.4079 150.941 55.073 151.589 53.5575C152.237 52.0552 152.567 50.4296 152.567 48.7159C152.567 47.0021 152.241 45.4206 151.593 43.9359C150.95 42.4425 150.056 41.1208 148.937 40.0018C147.827 38.8916 146.501 37.9973 144.994 37.3453C143.492 36.7021 141.862 36.3761 140.148 36.3761H140.143ZM140.161 61.038C138.518 61.038 136.936 60.712 135.46 60.0688C133.989 59.4212 132.694 58.5269 131.61 57.4167C130.522 56.2933 129.645 54.9717 129.011 53.4958C128.372 52.0156 128.046 50.4076 128.046 48.7159C128.046 47.0242 128.372 45.4602 129.015 44.0064C129.65 42.5482 130.526 41.2486 131.614 40.1428C132.689 39.0502 133.98 38.1603 135.452 37.4995C138.421 36.1691 141.981 36.1911 144.91 37.4995C146.382 38.1603 147.677 39.0458 148.769 40.1384C149.862 41.2266 150.739 42.5306 151.369 44.0152C151.994 45.4779 152.316 47.0594 152.316 48.7203C152.316 50.3812 151.999 52.0068 151.373 53.4958C150.743 54.9981 149.871 56.3198 148.774 57.4255C147.677 58.5357 146.377 59.4256 144.91 60.0732C143.426 60.7164 141.831 61.0424 140.161 61.0424V61.038ZM140.161 37.8652C138.703 37.8652 137.306 38.1603 136.011 38.7419C134.694 39.3322 133.544 40.1252 132.588 41.0988C131.619 42.0856 130.839 43.2443 130.266 44.5527C129.698 45.8347 129.412 47.2356 129.412 48.7159C129.412 50.1961 129.698 51.6455 130.266 52.954C130.835 54.28 131.614 55.4607 132.588 56.4651C133.548 57.452 134.698 58.245 136.007 58.8177C138.632 59.9587 141.765 59.9411 144.359 58.8177C145.664 58.245 146.822 57.452 147.796 56.4607C148.783 55.4651 149.536 54.3197 150.104 52.9628C150.659 51.6411 150.941 50.2138 150.941 48.7159C150.941 47.218 150.659 45.8435 150.104 44.5483C149.54 43.2266 148.765 42.068 147.796 41.1032C146.822 40.1296 145.659 39.3322 144.346 38.7419C143.047 38.1603 141.637 37.8652 140.152 37.8652H140.161Z" fill="#171717"/>
<path d="M171.925 61.8046C170.14 61.8046 168.453 61.4698 166.854 60.7781C165.264 60.0953 163.867 59.1569 162.686 57.963C161.484 56.7691 160.55 55.3814 159.862 53.8042C159.18 52.2227 158.836 50.5442 158.836 48.7467C158.836 46.9493 159.18 45.2708 159.862 43.6716C160.55 42.0812 161.479 40.7023 162.686 39.5172C163.871 38.341 165.264 37.407 166.854 36.7197C168.453 36.0369 170.14 35.6933 171.925 35.6933C173.581 35.6933 175.132 36.0061 176.612 36.6272C178.088 37.2528 179.462 38.0899 180.736 39.1648C180.912 39.3102 181 39.5128 181 39.7595C181 39.9842 180.921 40.1737 180.771 40.3278C180.573 40.4732 180.379 40.5437 180.181 40.5437C179.995 40.5437 179.828 40.482 179.647 40.3587C178.586 39.341 177.383 38.5524 176.053 38.0061C174.722 37.4643 173.348 37.1867 171.925 37.1867C170.339 37.1867 168.845 37.4951 167.449 38.1031C166.061 38.711 164.841 39.5437 163.801 40.601C162.752 41.6583 161.937 42.8918 161.334 44.2928C160.744 45.6981 160.44 47.1828 160.44 48.7511C160.44 50.3195 160.739 51.8085 161.334 53.2139C161.937 54.6192 162.752 55.8484 163.801 56.9101C164.841 57.963 166.061 58.8001 167.449 59.408C168.845 60.016 170.339 60.32 171.925 60.32C173.348 60.32 174.709 60.0424 176.039 59.4961C177.352 58.9543 178.546 58.1833 179.617 57.1832C179.771 57.0335 179.943 56.9586 180.141 56.9586C180.366 56.9586 180.568 57.0511 180.74 57.2229C180.894 57.4255 180.965 57.6194 180.965 57.8176C180.965 58.0467 180.881 58.2318 180.7 58.3815C179.484 59.4961 178.128 60.3508 176.639 60.9367C175.145 61.5182 173.586 61.8134 171.929 61.8134" fill="#171717"/>
<path d="M171.925 62.4875C170.044 62.4875 168.251 62.1218 166.585 61.4081C164.911 60.6856 163.436 59.69 162.202 58.4476C160.96 57.2185 159.964 55.7471 159.237 54.0818C158.519 52.4121 158.153 50.6191 158.153 48.7512C158.153 46.8832 158.519 45.0946 159.233 43.4073C159.955 41.7332 160.955 40.2618 162.206 39.0326C163.44 37.8079 164.911 36.8167 166.585 36.0942C168.273 35.3761 170.066 35.0104 171.925 35.0104C173.678 35.0104 175.299 35.3364 176.877 36.0017C178.432 36.6581 179.877 37.548 181.172 38.645C181.502 38.9181 181.679 39.3058 181.679 39.7596C181.679 40.156 181.533 40.5173 181.256 40.8037L181.168 40.8785C180.56 41.3235 179.89 41.3499 179.264 40.927L179.172 40.8521C178.172 39.8961 177.035 39.1516 175.788 38.6362C173.15 37.5568 170.194 37.6493 167.718 38.7287C166.409 39.3014 165.255 40.0944 164.286 41.0768C163.312 42.0592 162.532 43.2311 161.96 44.5615C161.405 45.8832 161.123 47.2929 161.123 48.7468C161.123 50.2006 161.405 51.6235 161.96 52.9452C162.537 54.2889 163.299 55.4299 164.286 56.4255C165.268 57.4168 166.422 58.2097 167.722 58.778C169.022 59.3464 170.436 59.6327 171.925 59.6327C173.264 59.6327 174.524 59.3816 175.775 58.8573C177.004 58.3507 178.137 57.615 179.145 56.6766C179.714 56.1215 180.643 56.1524 181.22 56.7383C181.516 57.1172 181.639 57.4564 181.639 57.8132C181.639 58.245 181.463 58.6195 181.132 58.897C179.872 60.0468 178.436 60.95 176.877 61.5623C175.304 62.1747 173.639 62.4831 171.92 62.4831L171.925 62.4875ZM171.925 36.3717C170.251 36.3717 168.634 36.6977 167.123 37.3453C165.612 37.9974 164.281 38.8917 163.167 40.0019C162.026 41.1253 161.149 42.4117 160.488 43.9448C159.845 45.4559 159.519 47.0771 159.519 48.7512C159.519 50.4252 159.845 52.0421 160.488 53.5399C161.14 55.0466 162.043 56.3726 163.167 57.4828C164.281 58.6062 165.612 59.505 167.127 60.157C168.621 60.8002 170.238 61.1262 171.929 61.1262C173.502 61.1262 174.96 60.8574 176.392 60.2979C177.789 59.7473 179.084 58.9366 180.242 57.8749C180.282 57.8 180.282 57.7472 180.198 57.637H180.141C178.956 58.7296 177.683 59.5534 176.304 60.1217C174.881 60.7121 173.449 60.9984 171.929 60.9984C170.255 60.9984 168.656 60.6724 167.18 60.0292C165.726 59.3948 164.427 58.5049 163.321 57.3859C162.228 56.2801 161.352 54.9673 160.709 53.4782C160.079 51.9848 159.761 50.3944 159.761 48.7468C159.761 47.0991 160.079 45.5175 160.709 44.0241C161.352 42.5306 162.228 41.2134 163.321 40.112C164.414 39.0062 165.709 38.1163 167.18 37.4731C169.995 36.2484 173.335 36.1515 176.317 37.3718C177.7 37.9445 178.965 38.7683 180.075 39.8168C180.146 39.8565 180.172 39.8565 180.185 39.8565C180.216 39.8565 180.251 39.8433 180.282 39.8256L180.295 39.6847C179.101 38.6758 177.775 37.8564 176.348 37.2528C174.943 36.6581 173.493 36.3717 171.925 36.3717Z" fill="#171717"/>
<path d="M187.52 61.8046C187.322 61.8046 187.142 61.7341 186.983 61.5843C186.816 61.4345 186.741 61.2627 186.741 61.0645V36.4378C186.741 36.2395 186.811 36.0633 186.983 35.9091C187.142 35.7637 187.322 35.6844 187.52 35.6844C187.719 35.6844 187.908 35.7637 188.084 35.9091C188.261 36.0633 188.34 36.2395 188.34 36.4378V61.0645C188.34 61.2627 188.261 61.4345 188.084 61.5843C187.913 61.7297 187.723 61.8046 187.52 61.8046ZM203.618 61.8046C203.367 61.8046 203.178 61.7341 203.023 61.5843L190.675 49.0066C190.516 48.9053 190.45 48.7291 190.45 48.4868C190.45 48.2621 190.516 48.0771 190.675 47.9273L202.019 36.288C202.156 36.1382 202.345 36.0633 202.574 36.0633C202.803 36.0633 202.975 36.1382 203.116 36.288C203.248 36.4378 203.319 36.6228 203.319 36.8519C203.319 37.0237 203.257 37.1955 203.134 37.3718L192.318 48.4516L204.142 60.5006C204.27 60.7032 204.327 60.8882 204.327 61.0645C204.327 61.3068 204.257 61.4962 204.107 61.6196C203.962 61.7429 203.794 61.8046 203.618 61.8046Z" fill="#171717"/>
<path d="M203.618 62.4874C203.195 62.4874 202.838 62.3509 202.552 62.0821L190.23 49.5309C190.005 49.3591 189.767 49.0463 189.767 48.4868C189.767 47.9273 190.009 47.6145 190.212 47.4295L201.534 35.8122C202.036 35.2703 203.067 35.2395 203.618 35.821C203.873 36.1074 204.006 36.4598 204.006 36.8519C204.006 37.1647 203.9 37.4731 203.693 37.7638L203.622 37.8476L193.274 48.4472L204.719 60.1349C204.913 60.4389 205.01 60.7517 205.01 61.0601C205.01 61.6284 204.759 61.9588 204.547 62.1394C204.274 62.3685 203.953 62.483 203.618 62.483V62.4874ZM203.508 61.1085C203.508 61.1085 203.53 61.1262 203.618 61.1262C203.627 61.1262 203.636 61.1262 203.671 61.0997C203.653 61.038 203.631 60.9852 203.6 60.9235L191.366 48.456L202.605 36.9444C202.631 36.9004 202.64 36.8695 202.64 36.8563C202.64 36.777 202.622 36.7594 202.613 36.7462H202.605L202.512 36.7682L191.168 48.4075L191.15 48.5132L191.168 48.5309L203.512 61.1041L203.508 61.1085ZM187.52 62.4874C187.146 62.4874 186.802 62.3465 186.52 62.0865C186.225 61.8222 186.062 61.4654 186.062 61.0645V36.4378C186.062 36.0369 186.221 35.6801 186.529 35.4069C187.084 34.8959 187.917 34.8827 188.525 35.3893C188.855 35.6756 189.027 36.0369 189.027 36.4378V61.0645C189.027 61.4654 188.855 61.8266 188.529 62.1042C188.234 62.3553 187.886 62.4874 187.525 62.4874H187.52ZM187.52 36.3717L187.423 36.4422V61.0645L187.52 61.1217C187.538 61.1217 187.573 61.1217 187.639 61.0645L187.657 36.4378C187.608 36.407 187.56 36.3717 187.52 36.3717Z" fill="#171717"/>
<path d="M223.764 60.0953C223.914 60.2451 223.993 60.4213 223.993 60.6195C223.993 60.8398 223.914 61.0292 223.764 61.1878C223.619 61.3552 223.429 61.4345 223.205 61.4345H211.345C211.116 61.4345 210.927 61.3552 210.786 61.1878C210.632 61.0292 210.561 60.8354 210.561 60.6195V36.8563C210.561 36.6272 210.64 36.4422 210.803 36.2924C210.971 36.1426 211.16 36.0721 211.385 36.0721H222.83C223.055 36.0721 223.24 36.1426 223.394 36.2924C223.54 36.4422 223.619 36.6272 223.619 36.8563C223.619 37.0854 223.54 37.266 223.394 37.4158C223.244 37.5612 223.059 37.6361 222.83 37.6361H212.169V47.6674H221.306C221.535 47.6674 221.72 47.7423 221.883 47.8921C222.046 48.0419 222.125 48.2269 222.125 48.4516C222.125 48.6762 222.046 48.8613 221.883 49.0111C221.72 49.1609 221.535 49.2313 221.306 49.2313H212.169V59.8662H223.205C223.429 59.8662 223.619 59.9455 223.764 60.0953Z" fill="#171717"/>
<path d="M223.2 62.1174H211.341C210.909 62.1174 210.539 61.95 210.266 61.6372C210.019 61.3817 209.874 61.0204 209.874 60.6195V36.8563C209.874 36.4378 210.032 36.0677 210.341 35.7902C210.64 35.5214 210.988 35.3893 211.385 35.3893H222.83C223.235 35.3893 223.597 35.5347 223.874 35.8078C224.156 36.0986 224.302 36.4554 224.302 36.8563C224.302 37.2572 224.156 37.6096 223.887 37.8916C223.583 38.1824 223.227 38.3233 222.834 38.3233H212.856V46.9889H221.306C221.698 46.9889 222.046 47.1211 222.341 47.3898C222.649 47.6762 222.812 48.0418 222.812 48.456C222.812 48.8701 222.649 49.2445 222.345 49.5221C222.055 49.7864 221.707 49.923 221.31 49.923H212.86V59.1921H223.213C223.614 59.1921 223.976 59.3375 224.257 59.6151C224.535 59.897 224.68 60.245 224.68 60.6239C224.68 61.0028 224.539 61.3729 224.271 61.6592C224.002 61.9588 223.632 62.1218 223.209 62.1218L223.2 62.1174ZM211.38 36.7506C211.323 36.7506 211.297 36.7594 211.252 36.799L211.235 60.6195L211.292 60.7429L223.196 60.7517C223.293 60.6856 223.301 60.6548 223.301 60.6195L223.76 60.0953L223.279 60.5799C223.279 60.5799 223.249 60.5534 223.2 60.5534H211.486V48.5573H221.301C221.359 48.5573 221.381 48.5441 221.42 48.5132L221.878 47.8965L221.42 48.4031C221.376 48.3634 221.35 48.3546 221.301 48.3546H211.486V36.9576H222.83L222.936 36.8607L222.83 36.7594H211.385L211.38 36.7506Z" fill="#171717"/>
<path d="M245.443 36.0325C245.545 35.8298 245.699 35.7065 245.906 35.658C246.122 35.614 246.329 35.6448 246.523 35.7725C246.725 35.8959 246.84 36.0589 246.88 36.2572C246.924 36.4598 246.888 36.6448 246.783 36.8211L238.76 52.7865V61.0689C238.76 61.2671 238.69 61.4389 238.527 61.5931C238.364 61.7385 238.17 61.8134 237.945 61.8134C237.743 61.8134 237.566 61.7385 237.403 61.5931C237.245 61.4433 237.161 61.2715 237.161 61.0689V52.7865L229.253 36.8915C229.121 36.6625 229.095 36.4642 229.174 36.2792C229.253 36.0942 229.368 35.9444 229.535 35.8474C229.694 35.7505 229.883 35.7109 230.09 35.7373C230.302 35.7593 230.487 35.8607 230.632 36.0369L238.064 50.9627L245.448 36.0369L245.443 36.0325Z" fill="#171717"/>
<path d="M237.941 62.4874C237.576 62.4874 237.241 62.3553 236.946 62.0953C236.553 61.7165 236.474 61.3288 236.474 61.0601V52.9363L228.637 37.1823C228.359 36.6977 228.425 36.2704 228.535 36.006C228.685 35.658 228.901 35.4069 229.187 35.2439C229.465 35.0721 229.817 35.0016 230.174 35.0501C230.558 35.0941 230.901 35.2835 231.152 35.5919L231.236 35.7197L238.051 49.4119L244.827 35.7197C245.016 35.3408 245.329 35.0853 245.734 34.9884C246.166 34.9003 246.549 34.9752 246.889 35.191C247.237 35.4025 247.466 35.7241 247.545 36.1118C247.624 36.473 247.558 36.8431 247.36 37.1691L239.435 52.9407V61.0601C239.435 61.4566 239.28 61.809 238.981 62.0821C238.686 62.3465 238.329 62.483 237.937 62.483L237.941 62.4874ZM229.958 36.4069C229.932 36.4069 229.91 36.4069 229.892 36.4202C229.844 36.451 229.813 36.5083 229.8 36.5435L237.844 52.6191V61.0601L237.946 61.1173C238.007 61.1173 238.038 61.0997 238.069 61.0733L238.078 52.6147L246.175 36.5039L246.215 36.3805C246.127 36.3144 246.1 36.3056 246.047 36.3188L245.453 36.0237L246.065 36.3276L238.069 52.4826L230.073 36.4202C230.073 36.4202 230.042 36.4069 230.016 36.4025C229.998 36.4025 229.985 36.4025 229.967 36.4025L229.958 36.4069Z" fill="#171717"/>
<path d="M256.444 61.4345H254.77V35.028H259.422C261.484 35.028 263.484 35.169 265.136 36.5744C266.744 37.9357 267.515 39.9314 267.515 42.0019C267.515 43.8919 266.784 45.9933 265.317 47.2136C263.696 48.6146 261.488 48.8965 259.427 48.8965H256.444V61.4345ZM259.497 47.3282C261.211 47.3282 262.753 47.1167 264.123 45.8876C265.273 44.8391 265.823 43.469 265.823 41.9314C265.823 40.2838 265.167 38.6361 263.832 37.6625C262.506 36.6449 260.828 36.614 259.22 36.614H256.444V47.3326H259.497V47.3282Z" fill="#171717"/>
<path d="M277.172 59.8618H283.899V61.4345H275.502V35.0324H277.172V59.8618Z" fill="#171717"/>
<path d="M293.737 52.7513L290.203 61.4345H288.485L299.552 34.1602L310.588 61.4345H308.861L305.328 52.7513H293.737ZM299.552 38.4291L294.371 51.1786H304.698L299.548 38.4291H299.552Z" fill="#171717"/>
<path d="M333.972 59.8618V61.4345H315.381L331.487 36.6096H316.923V35.0324H334.426L318.315 59.8618H333.972Z" fill="#171717"/>
<path d="M344.479 52.7513L340.937 61.4345H339.219L350.29 34.1602L361.312 61.4345H359.599L356.057 52.7513H344.474H344.479ZM350.294 38.4291L345.104 51.1786H355.44L350.294 38.4291Z" fill="#171717"/>
</svg>
